<svg width="17" height="23" viewBox="0 0 17 23" fill="none" xmlns="http://www.w3.org/2000/svg">
<path d="M8.5 0C3.81225 0 0 3.86831 0 8.625C0 14.6036 7.67267 22.4581 7.9985 22.7901C8.13733 22.9296 8.31867 23 8.5 23C8.68133 23 8.86267 22.9296 9.0015 22.7901C9.32733 22.4581 17 14.6036 17 8.625C17 3.86831 13.1877 0 8.5 0ZM8.5 21.2419C6.8085 19.4048 1.41667 13.1919 1.41667 8.625C1.41667 4.66181 4.59425 1.4375 8.5 1.4375C12.4057 1.4375 15.5833 4.66181 15.5833 8.625C15.5833 13.1876 10.1915 19.4048 8.5 21.2419Z" fill="#FFB300"/>
<path d="M8.5 4.3125C6.15683 4.3125 4.25 6.24738 4.25 8.625C4.25 11.0026 6.15683 12.9375 8.5 12.9375C10.8432 12.9375 12.75 11.0026 12.75 8.625C12.75 6.24738 10.8432 4.3125 8.5 4.3125ZM8.5 11.5C6.93742 11.5 5.66667 10.2106 5.66667 8.625C5.66667 7.03944 6.93742 5.75 8.5 5.75C10.0626 5.75 11.3333 7.03944 11.3333 8.625C11.3333 10.2106 10.0626 11.5 8.5 11.5Z" fill="#FFB300"/>
</svg>
