<svg width="162" height="161" viewBox="0 0 162 161" fill="none" xmlns="http://www.w3.org/2000/svg">
<path d="M81.0004 47.0002C67.7644 47.0002 57.0004 57.9324 57.0004 71.3752C57.0004 88.2712 78.6644 110.469 79.5844 111.407C79.9764 111.801 80.4884 112 81.0004 112C81.5124 112 82.0244 111.801 82.4164 111.407C83.3364 110.469 105 88.2712 105 71.3752C105 57.9324 94.2364 47.0002 81.0004 47.0002ZM81.0004 107.032C76.2244 101.84 61.0004 84.2818 61.0004 71.3752C61.0004 60.1749 69.9724 51.0627 81.0004 51.0627C92.0284 51.0627 101 60.1749 101 71.3752C101 84.2696 85.7764 101.84 81.0004 107.032Z" fill="#FFA800"/>
<path d="M81.0004 59.1877C74.3844 59.1877 69.0004 64.6559 69.0004 71.3752C69.0004 78.0946 74.3844 83.5627 81.0004 83.5627C87.6164 83.5627 93.0004 78.0946 93.0004 71.3752C93.0004 64.6559 87.6164 59.1877 81.0004 59.1877ZM81.0004 79.5002C76.5884 79.5002 73.0004 75.8562 73.0004 71.3752C73.0004 66.8943 76.5884 63.2502 81.0004 63.2502C85.4124 63.2502 89.0004 66.8943 89.0004 71.3752C89.0004 75.8562 85.4124 79.5002 81.0004 79.5002Z" fill="#FFA800"/>
<path d="M10.4419 91.4186L10.7991 93.1457L3.83894 94.5851L4.53072 97.9303L11.4909 96.491L11.8468 98.2123L3.49238 99.94L2.08745 93.1463L10.4419 91.4186Z" fill="#FFA800"/>
<path d="M7.03624 88.343L10.0313 88.0884L10.1802 89.8399L1.67958 90.5625L1.3977 87.2463C1.34344 86.608 1.41255 86.0376 1.60506 85.5351C1.79724 85.0287 2.09826 84.6268 2.50813 84.3293C2.9141 84.0321 3.39151 83.8602 3.94031 83.8135C4.77324 83.7427 5.45534 83.9729 5.98661 84.504C6.51366 85.0316 6.82002 85.7994 6.90571 86.8075L7.03624 88.343ZM5.61753 88.4636L5.48452 86.8989C5.44515 86.4357 5.30622 86.0928 5.06774 85.87C4.82894 85.6433 4.50715 85.5472 4.10236 85.5816C3.68589 85.617 3.35963 85.7682 3.12359 86.0352C2.88755 86.3023 2.78399 86.6521 2.81293 87.0848L2.9494 88.6904L5.61753 88.4636Z" fill="#FFA800"/>
<path d="M5.68808 74.296C6.52746 74.3238 7.25847 74.4965 7.8811 74.8142C8.50373 75.1319 8.97764 75.5736 9.30283 76.1394C9.62814 76.7012 9.77896 77.3394 9.75528 78.0539C9.73185 78.7605 9.54113 79.3854 9.1831 79.9285C8.82507 80.4716 8.32671 80.885 7.68806 81.1687C7.0455 81.4523 6.31423 81.5824 5.49424 81.5592L5.07259 81.5452C4.23321 81.5173 3.50031 81.3426 2.87391 81.0209C2.24373 80.6951 1.76794 80.2514 1.44653 79.6897C1.12135 79.1239 0.970533 78.4857 0.994085 77.7752C1.01764 77.0646 1.21032 76.4398 1.57212 75.9007C1.93016 75.3576 2.43429 74.9463 3.08453 74.6669C3.73099 74.3835 4.47196 74.2557 5.30743 74.2833L5.68808 74.296ZM5.24257 76.0634C4.34853 76.0338 3.66392 76.1713 3.18872 76.4761C2.71352 76.7808 2.46608 77.2299 2.44641 77.8233C2.42687 78.4128 2.64214 78.8753 3.09221 79.2107C3.53838 79.546 4.20452 79.7303 5.09062 79.7635L5.5064 79.7773C6.37701 79.8062 7.05773 79.6685 7.54854 79.3643C8.03936 79.0601 8.29473 78.6073 8.31466 78.0061C8.3342 77.4166 8.11887 76.9561 7.66867 76.6246C7.21456 76.2929 6.54446 76.1105 5.65836 76.0772L5.24257 76.0634Z" fill="#FFA800"/>
<path d="M2.2321 66.5331L2.50136 64.7901L10.9326 66.0925L10.6633 67.8355L5.06375 66.9705L10.1418 71.2115L9.87345 72.9487L1.4422 71.6462L1.71057 69.909L7.32175 70.7759L2.2321 66.5331Z" fill="#FFA800"/>
<path d="M6.45473 58.6796C6.14209 58.5937 5.86363 58.6488 5.61933 58.845C5.37127 59.0402 5.19188 59.3393 5.08116 59.7423C4.98182 60.1039 4.98943 60.4301 5.10401 60.7209C5.21585 61.0068 5.41491 61.1891 5.70118 61.2677L5.23553 62.9627C4.79106 62.8406 4.42594 62.6066 4.14017 62.2608C3.85166 61.9101 3.67072 61.4776 3.59733 60.9632C3.52497 60.4451 3.56381 59.9129 3.71385 59.3667C3.97462 58.4175 4.38239 57.7295 4.93716 57.3026C5.49194 56.8757 6.14223 56.7647 6.88804 56.9696C7.25341 57.07 7.56188 57.2742 7.81346 57.5823C8.06608 57.8867 8.23068 58.2681 8.30725 58.7267C8.58963 58.3181 8.92591 58.0378 9.31607 57.8857C9.70247 57.7326 10.1348 57.7218 10.6132 57.8532C11.3515 58.056 11.8594 58.5075 12.137 59.2076C12.4118 59.9029 12.4179 60.7289 12.155 61.6857C11.9905 62.2846 11.7408 62.7953 11.406 63.2178C11.0674 63.6392 10.6869 63.9256 10.2646 64.0769C9.83948 64.2235 9.39151 64.2321 8.92067 64.1027L9.38943 62.3964C9.68323 62.4771 9.96513 62.4168 10.2351 62.2155C10.5014 62.0132 10.6893 61.7124 10.799 61.3131C10.9232 60.8611 10.9193 60.4772 10.7873 60.1615C10.6563 59.8419 10.4345 59.6392 10.1219 59.5533C9.69246 59.4353 9.35339 59.4678 9.10467 59.6506C8.85218 59.8324 8.66436 60.1474 8.54122 60.5957L8.26339 61.607L6.93563 61.2423L7.22278 60.197C7.43395 59.3841 7.17794 58.8782 6.45473 58.6796Z" fill="#FFA800"/>
<path d="M13.3241 57.1558L5.39528 54.0069L6.49827 51.2296C6.88035 50.2675 7.35531 49.6114 7.92314 49.2611C8.48734 48.9093 9.12523 48.8747 9.83679 49.1573C10.2252 49.3116 10.5287 49.5477 10.7471 49.8656C10.9618 50.1821 11.0675 50.5456 11.0642 50.9561C11.3273 50.5899 11.6593 50.3519 12.0602 50.2421C12.4625 50.1287 12.8869 50.1606 13.3335 50.338C14.0958 50.6408 14.5765 51.1132 14.7754 51.7554C14.9742 52.3976 14.8985 53.1703 14.5482 54.0736L13.3241 57.1558ZM10.5204 54.1509L12.6605 55.0009L13.2164 53.6014C13.3692 53.2165 13.3974 52.881 13.3009 52.5947C13.2023 52.3033 12.9914 52.0935 12.6683 51.9652C11.9422 51.6768 11.4245 51.9062 11.1152 52.6534L10.5204 54.1509ZM9.36593 53.6924L9.84606 52.4835C10.1588 51.6536 9.99392 51.1111 9.35133 50.8559C8.99192 50.7132 8.69236 50.7161 8.45262 50.8646C8.2107 51.0081 8.00034 51.305 7.82156 51.7551L7.36738 52.8987L9.36593 53.6924Z" fill="#FFA800"/>
<path d="M16.3384 41.1063C17.0762 41.5076 17.6521 41.9898 18.0661 42.553C18.4802 43.1161 18.7057 43.7235 18.7426 44.375C18.7814 45.0231 18.63 45.6611 18.2885 46.2891C17.9506 46.9102 17.4999 47.3832 16.9363 47.7081C16.3728 48.0329 15.7419 48.179 15.0439 48.1461C14.3424 48.1114 13.6304 47.8998 12.908 47.5113L12.5373 47.3097C11.7996 46.9084 11.2229 46.4235 10.8073 45.8551C10.3901 45.2813 10.1638 44.6713 10.1285 44.0251C10.0915 43.3736 10.2429 42.7356 10.5826 42.111C10.9223 41.4865 11.3747 41.0144 11.9399 40.6948C12.5034 40.3699 13.1385 40.2285 13.8449 40.2703C14.5499 40.3069 15.2695 40.5249 16.0038 40.9243L16.3384 41.1063ZM15.1476 42.4863C14.3618 42.0589 13.6881 41.8748 13.1268 41.9341C12.5654 41.9933 12.1428 42.2838 11.8591 42.8054C11.5773 43.3235 11.5623 43.8334 11.8142 44.335C12.0626 44.8348 12.5754 45.2982 13.3524 45.7253L13.7179 45.9241C14.4831 46.3403 15.1533 46.5225 15.7284 46.4707C16.3035 46.4189 16.7348 46.1288 17.0222 45.6003C17.3041 45.0822 17.3181 44.574 17.0644 44.0758C16.8072 43.5758 16.2901 43.1122 15.513 42.6851L15.1476 42.4863Z" fill="#FFA800"/>
<path d="M26.9839 36.5578L26.0385 37.8771L24.3335 36.6553L21.3369 40.837L23.0372 42.0554L22.068 43.408L19.1652 41.4433L19.5406 40.9194C19.5082 40.4685 19.3195 40.0041 18.9747 39.5263C18.6289 39.0431 18.1388 38.5333 17.5044 37.997L14.59 35.6058L17.8459 31.0621L23.6327 35.2088L24.2129 34.3991L26.9839 36.5578ZM20.7147 39.281L22.6089 36.6377L17.9794 33.3203L16.72 35.0778L18.4589 36.504C19.6131 37.4752 20.365 38.4009 20.7147 39.281Z" fill="#FFA800"/>
<path d="M28.8044 27.2396C29.431 27.9137 29.7284 28.6548 29.6964 29.463C29.6672 30.2684 29.3118 31.037 28.6304 31.7689C27.8852 32.5694 27.0295 32.9496 26.0635 32.9095C25.0972 32.8639 24.1438 32.4032 23.2032 31.5275L22.8215 31.1722C22.2211 30.6132 21.7907 30.015 21.5302 29.3776C21.2697 28.7401 21.2003 28.1124 21.322 27.4945C21.4434 26.871 21.7463 26.2992 22.2308 25.7788C22.9015 25.0583 23.6349 24.6576 24.4307 24.5767C25.2266 24.4957 26.0053 24.7457 26.7668 25.3265L25.569 26.6131C25.1366 26.2692 24.7398 26.1106 24.3787 26.1374C24.0174 26.1586 23.6531 26.3665 23.2858 26.761C22.8865 27.1899 22.7414 27.6552 22.8506 28.1571C22.9595 28.6535 23.3344 29.2053 23.9752 29.8126L24.447 30.2518C25.1217 30.8799 25.7094 31.2376 26.21 31.3247C26.7132 31.409 27.1698 31.231 27.5798 30.7907C27.9497 30.3933 28.1352 30.0135 28.136 29.6514C28.1367 29.2838 27.9602 28.9087 27.6066 28.5261L28.8044 27.2396Z" fill="#FFA800"/>
<path d="M32.4516 18.3139L30.4704 20.0181L35.1052 25.4064L33.7726 26.5527L29.1378 21.1643L27.1832 22.8456L26.2548 21.7661L31.5232 17.2345L32.4516 18.3139Z" fill="#FFA800"/>
<path d="M37.9806 22.9922L33.2026 15.9245L35.6783 14.2509C36.5359 13.6712 37.2979 13.3965 37.9644 13.4268C38.6287 13.454 39.1753 13.7847 39.6041 14.419C39.8382 14.7652 39.9559 15.1312 39.9573 15.5169C39.9565 15.8993 39.8391 16.2593 39.6051 16.5966C40.0288 16.4422 40.4372 16.4325 40.8303 16.5676C41.2266 16.7005 41.5593 16.9659 41.8284 17.364C42.2878 18.0435 42.4188 18.7047 42.2215 19.3473C42.0241 19.99 41.5263 20.5858 40.7281 21.1349L37.9806 22.9922ZM37.3564 18.9302L38.646 20.8379L39.8936 19.9945C40.2366 19.7626 40.4489 19.5012 40.5304 19.2104C40.613 18.914 40.557 18.6219 40.3623 18.3339C39.9247 17.6866 39.3677 17.5846 38.6913 18.0278L37.3564 18.9302ZM36.6607 17.9011L37.7383 17.1726C38.4642 16.663 38.6335 16.1219 38.2463 15.5491C38.0297 15.2287 37.7805 15.0624 37.4987 15.0501C37.218 15.0324 36.877 15.1592 36.4757 15.4305L35.4563 16.1196L36.6607 17.9011Z" fill="#FFA800"/>
<path d="M49.4463 11.4415C49.8319 12.1876 50.0381 12.9099 50.0649 13.6084C50.0917 14.3069 49.9376 14.9361 49.6027 15.4962C49.2712 16.0544 48.7879 16.4976 48.1529 16.8258C47.5247 17.1504 46.8863 17.2891 46.2375 17.2419C45.5887 17.1946 44.9846 16.9616 44.4252 16.5428C43.864 16.1205 43.3933 15.5459 43.0132 14.8189L42.8195 14.4441C42.434 13.698 42.2286 12.9731 42.2035 12.2694C42.1801 11.5604 42.335 10.9285 42.6683 10.3737C43.0032 9.81365 43.4865 9.37041 44.118 9.04401C44.7496 8.71762 45.389 8.58067 46.0361 8.63318C46.6849 8.68043 47.29 8.91956 47.8513 9.35059C48.4143 9.77635 48.8877 10.3605 49.2715 11.1032L49.4463 11.4415ZM47.6864 11.9158C47.2757 11.1211 46.8213 10.5908 46.3234 10.3249C45.8254 10.059 45.3127 10.0624 44.7852 10.3349C44.2612 10.6058 43.9627 11.0194 43.8898 11.576C43.8151 12.129 43.9795 12.8004 44.3831 13.5899L44.5741 13.9595C44.9741 14.7333 45.4266 15.2601 45.9318 15.5399C46.4369 15.8197 46.9567 15.8215 47.4911 15.5453C48.0151 15.2745 48.3118 14.8617 48.3813 14.307C48.449 13.7488 48.281 13.0749 47.8774 12.2853L47.6864 11.9158Z" fill="#FFA800"/>
<path d="M60.2984 9.90884L57.3579 10.8321L57.3255 12.6848L55.5422 13.2447L56.0163 4.15389L57.5704 3.66591L63.1729 10.8487L61.3896 11.4086L60.2984 9.90884ZM57.3842 9.33153L59.419 8.69258L57.4394 5.96712L57.3842 9.33153Z" fill="#FFA800"/>
<path d="M68.237 1.93322L68.341 1.91546C68.9994 1.80294 69.6193 1.8476 70.2007 2.04943C70.7852 2.24676 71.2715 2.58768 71.6594 3.07222C72.0474 3.55677 72.2996 4.13982 72.416 4.82135C72.5884 5.83016 72.4058 6.70941 71.8681 7.45913C71.3343 8.20818 70.5188 8.67648 69.4214 8.864L69.605 9.93827L67.9358 10.2235L67.7522 9.14924L67.6425 9.16798C66.9764 9.28181 66.3513 9.242 65.7674 9.04853C65.1829 8.8512 64.6979 8.51796 64.3126 8.04882C63.9312 7.57902 63.6835 7.01105 63.5697 6.34493C63.4546 5.6711 63.4979 5.04351 63.6997 4.46214C63.9016 3.88078 64.2409 3.39678 64.7177 3.01015C65.1939 2.61967 65.7567 2.36498 66.4061 2.24609L66.5679 2.21845L66.3803 1.12108L68.0495 0.835842L68.237 1.93322ZM66.7039 3.67534C66.1302 3.77338 65.7087 4.03166 65.4394 4.45019C65.1739 4.86806 65.0975 5.40621 65.21 6.06463C65.3153 6.6807 65.5618 7.13789 65.9496 7.4362C66.3368 7.73066 66.8269 7.82722 67.4198 7.72589L67.5065 7.7111L66.8136 3.65658L66.7039 3.67534ZM68.4828 3.37136L69.1756 7.42586L69.2911 7.40613C69.8572 7.3094 70.2716 7.05629 70.5345 6.64678C70.8006 6.23276 70.881 5.71771 70.7757 5.10164C70.6659 4.45862 70.4199 3.98152 70.0378 3.67034C69.6557 3.35916 69.1662 3.25456 68.5694 3.35655L68.4828 3.37136Z" fill="#FFA800"/>
<path d="M80.2668 1.49528L76.4441 1.65895L76.7482 8.75987L74.992 8.83507L74.627 0.311631L80.2059 0.0727539L80.2668 1.49528Z" fill="#FFA800"/>
<path d="M87.4541 7.14035L84.3798 6.92215L83.6709 8.63407L81.8064 8.50174L85.5782 0.216739L87.203 0.332057L89.7844 9.06798L87.9199 8.93566L87.4541 7.14035ZM84.954 5.5355L87.0815 5.68649L86.238 2.42524L84.954 5.5355Z" fill="#FFA800"/>
<path d="M97.8386 10.5417L96.1126 10.2089L96.8048 6.61879L93.439 5.96984L92.7468 9.55997L91.0208 9.22718L92.636 0.850218L94.362 1.183L93.7075 4.57752L97.0732 5.22646L97.7277 1.83195L99.4538 2.16474L97.8386 10.5417Z" fill="#FFA800"/>
<path d="M106.829 4.33811L108.509 4.87366L105.919 13.0021L104.238 12.4665L105.959 7.06806L100.983 11.4292L99.3086 10.8955L101.899 2.76704L103.574 3.30082L101.85 8.71044L106.829 4.33811Z" fill="#FFA800"/>
<path d="M114.75 13.7817C114.308 14.5889 113.699 15.1046 112.921 15.329C112.148 15.555 111.306 15.46 110.397 15.044C109.403 14.589 108.772 13.8967 108.506 12.9673C108.244 12.0359 108.381 10.9859 108.916 9.81725L109.133 9.34303C109.474 8.59708 109.906 8.00006 110.429 7.55197C110.952 7.10388 111.526 6.8402 112.151 6.7609C112.78 6.67968 113.419 6.78696 114.065 7.08273C114.96 7.49226 115.572 8.06192 115.899 8.79173C116.227 9.52154 116.235 10.3393 115.924 11.245L114.325 10.5137C114.516 9.995 114.541 9.56849 114.402 9.2342C114.268 8.89798 113.956 8.61775 113.466 8.39348C112.933 8.14971 112.445 8.1587 112.003 8.42045C111.567 8.68028 111.161 9.20995 110.787 10.0095L110.519 10.5956C110.135 11.4339 109.981 12.1043 110.056 12.6069C110.135 13.1111 110.447 13.4883 110.994 13.7386C111.488 13.9645 111.907 14.0208 112.251 13.9075C112.6 13.7923 112.9 13.5066 113.152 13.0504L114.75 13.7817Z" fill="#FFA800"/>
<path d="M124.397 14.4491L122.157 13.1016L118.493 19.1912L116.986 18.2848L120.651 12.1952L118.442 10.8657L119.177 9.6458L125.131 13.2292L124.397 14.4491Z" fill="#FFA800"/>
<path d="M126.522 22.6374L124.07 20.77L122.539 21.8134L121.052 20.6808L128.748 15.8182L130.043 16.8052L127.415 25.5269L125.928 24.3944L126.522 22.6374ZM125.31 19.9249L127.007 21.2172L128.089 18.027L125.31 19.9249Z" fill="#FFA800"/>
<path d="M133.373 31.2126L132.114 29.9867L134.663 27.3663L132.207 24.9758L129.657 27.5963L128.397 26.3704L134.347 20.2561L135.606 21.4819L133.196 23.9596L135.652 26.35L138.063 23.8723L139.323 25.0982L133.373 31.2126Z" fill="#FFA800"/>
<path d="M133.046 34.1275L132.816 33.1557L133.242 33.0657C133.774 32.9513 134.221 32.7424 134.583 32.4387L135.575 31.5791L136.511 32.6595L135.622 33.4226C135.292 33.7036 134.889 33.9075 134.415 34.0342C133.941 34.1609 133.485 34.192 133.046 34.1275Z" fill="#FFA800"/>
<path d="M148.671 39.7752L147.24 37.5885L141.292 41.4798L140.33 40.0089L146.278 36.1175L144.866 33.9601L146.057 33.1806L149.862 38.9957L148.671 39.7752Z" fill="#FFA800"/>
<path d="M150.107 49.0803C149.356 49.4573 148.632 49.6552 147.933 49.674C147.234 49.6928 146.607 49.5315 146.05 49.1902C145.496 48.8524 145.058 48.364 144.737 47.7253C144.42 47.0935 144.289 46.4535 144.343 45.8053C144.398 45.1571 144.638 44.5557 145.063 44.0011C145.492 43.4447 146.072 42.9807 146.803 42.609L147.18 42.4196C147.93 42.0425 148.658 41.8455 149.362 41.8284C150.071 41.8131 150.701 41.9753 151.252 42.3149C151.808 42.6562 152.246 43.1445 152.565 43.7798C152.884 44.4151 153.014 45.0559 152.954 45.7024C152.899 46.3506 152.653 46.9529 152.216 47.5093C151.783 48.0674 151.194 48.534 150.447 48.9093L150.107 49.0803ZM149.653 47.315C150.452 46.9134 150.987 46.4652 151.259 45.9703C151.53 45.4754 151.533 44.9627 151.266 44.4321C151.002 43.905 150.591 43.6019 150.036 43.5226C149.484 43.4415 148.81 43.5983 148.016 43.9928L147.645 44.1796C146.866 44.5706 146.334 45.0171 146.049 45.519C145.763 46.0209 145.755 46.5407 146.025 47.0782C146.29 47.6053 146.7 47.9067 147.253 47.9825C147.811 48.0566 148.487 47.8963 149.281 47.5018L149.653 47.315Z" fill="#FFA800"/>
<path d="M157.462 55.896L149.438 58.7945L148.839 57.1357L155.524 54.721L154.751 52.5828L151.871 53.4737C150.896 53.7637 150.099 53.9145 149.48 53.9262C148.865 53.9366 148.364 53.8082 147.977 53.541C147.593 53.2726 147.287 52.8267 147.058 52.2035L146.902 51.7736L148.23 51.2939L148.357 51.5595C148.563 51.9547 148.908 52.1642 149.394 52.1879C149.886 52.214 150.684 52.0545 151.788 51.7094L155.519 50.5174L157.462 55.896Z" fill="#FFA800"/>
<path d="M155.635 60.8416L155.954 62.1751C156.187 63.1515 156.135 63.9814 155.796 64.6648C155.462 65.3512 154.894 65.7902 154.093 65.9819C153.287 66.1746 152.572 66.0446 151.945 65.5919C151.323 65.1422 150.896 64.4471 150.663 63.5068L149.918 60.3896L158.215 58.405L158.626 60.126L155.635 60.8416ZM154.256 61.1715L151.703 61.7821L152.028 63.1441C152.133 63.581 152.336 63.9 152.637 64.1011C152.939 64.306 153.291 64.3602 153.694 64.2639C154.07 64.174 154.336 63.9777 154.493 63.6752C154.654 63.3755 154.687 63.0082 154.591 62.5733L154.256 61.1715Z" fill="#FFA800"/>
<path d="M155.488 70.3725L155.367 69.3661L151.906 69.7809L151.697 68.0356L160.167 67.0204L160.376 68.7657L156.985 69.1722L157.08 69.9693L160.72 71.6339L160.975 73.7631L156.654 71.6314L152.538 75.0518L152.288 72.9691L155.488 70.3725Z" fill="#FFA800"/>
<path d="M156.722 83.3661C155.882 83.3669 155.145 83.2191 154.512 82.9229C153.879 82.6266 153.39 82.2013 153.046 81.6469C152.702 81.0965 152.529 80.4638 152.529 79.749C152.528 79.0419 152.697 78.4109 153.037 77.8559C153.376 77.3009 153.86 76.8708 154.489 76.5655C155.121 76.2602 155.848 76.1052 156.668 76.1005L157.09 76.1001C157.93 76.0993 158.668 76.249 159.305 76.5491C159.946 76.8532 160.437 77.2805 160.777 77.8309C161.121 78.3853 161.294 79.0179 161.294 79.7289C161.295 80.4398 161.124 81.0708 160.781 81.622C160.441 82.177 159.951 82.6052 159.311 82.9066C158.675 83.2119 157.938 83.3649 157.103 83.3657L156.722 83.3661ZM157.107 81.5844C158.001 81.5836 158.681 81.4228 159.145 81.102C159.61 80.7813 159.842 80.324 159.841 79.7303C159.841 79.1404 159.61 78.6856 159.149 78.3657C158.691 78.0458 158.019 77.8844 157.132 77.8813L156.716 77.8817C155.845 77.8825 155.17 78.0433 154.69 78.3641C154.209 78.6849 153.97 79.146 153.97 79.7476C153.971 80.3374 154.202 80.7904 154.663 81.1063C155.128 81.4223 155.804 81.5818 156.691 81.5848L157.107 81.5844Z" fill="#FFA800"/>
<path d="M155.065 96.1864C154.238 96.0427 153.538 95.7705 152.965 95.3698C152.392 94.9691 151.984 94.466 151.74 93.8607C151.496 93.2593 151.435 92.6064 151.557 91.9021C151.678 91.2055 151.953 90.613 152.383 90.1246C152.813 89.6362 153.363 89.2957 154.035 89.1031C154.711 88.9111 155.453 88.8834 156.262 89.0198L156.678 89.092C157.505 89.2356 158.207 89.5101 158.783 89.9153C159.362 90.3251 159.772 90.8304 160.012 91.4312C160.256 92.0365 160.317 92.6894 160.196 93.3898C160.074 94.0903 159.797 94.6825 159.364 95.1663C158.934 95.6547 158.378 95.9923 157.695 96.1791C157.016 96.3704 156.264 96.3945 155.441 96.2515L155.065 96.1864ZM155.751 94.4975C156.632 94.6505 157.33 94.609 157.842 94.3729C158.355 94.1368 158.662 93.7263 158.764 93.1413C158.865 92.5601 158.715 92.0723 158.316 91.6779C157.921 91.2841 157.286 91.0095 156.413 90.854L156.003 90.7828C155.145 90.6338 154.452 90.676 153.924 90.9095C153.396 91.1429 153.08 91.5559 152.977 92.1486C152.876 92.7298 153.026 93.2156 153.426 93.6062C153.83 93.9975 154.468 94.2709 155.341 94.4264L155.751 94.4975Z" fill="#FFA800"/>
<path d="M153.156 99.3762L150.275 98.5161L150.778 96.8318L158.953 99.2728L158.001 102.462C157.817 103.076 157.544 103.581 157.181 103.978C156.817 104.379 156.389 104.643 155.899 104.769C155.412 104.897 154.905 104.882 154.378 104.725C153.577 104.486 153.026 104.022 152.726 103.333C152.429 102.649 152.425 101.822 152.715 100.853L153.156 99.3762ZM154.52 99.7836L154.071 101.288C153.938 101.734 153.941 102.104 154.082 102.398C154.221 102.697 154.485 102.904 154.874 103.02C155.275 103.14 155.634 103.119 155.951 102.957C156.269 102.795 156.493 102.507 156.625 102.094L157.086 100.55L154.52 99.7836Z" fill="#FFA800"/>
<path d="M154.002 113.265L153.298 114.882L145.476 111.475L146.181 109.858L151.375 112.121L147.545 106.726L148.247 105.115L156.068 108.522L155.366 110.133L150.161 107.866L154.002 113.265Z" fill="#FFA800"/>
<path d="M148.048 121.459L149.961 118.145L143.806 114.591L144.685 113.069L152.073 117.335L149.281 122.171L148.048 121.459Z" fill="#FFA800"/>
<path d="M144.653 128.857L143.605 130.276L136.743 125.206L137.791 123.788L142.348 127.155L139.821 121.04L140.866 119.626L147.727 124.696L146.683 126.11L142.116 122.736L144.653 128.857Z" fill="#FFA800"/>
<path d="M131.131 131.372L132.334 130.09L135.001 132.591L137.346 130.091L134.679 127.59L135.881 126.308L142.104 132.144L140.901 133.426L138.38 131.061L136.035 133.561L138.557 135.926L137.354 137.208L131.131 131.372Z" fill="#FFA800"/>
<path d="M127.593 136.821L129.952 134.838L129.269 133.115L130.699 131.912L133.76 140.486L132.513 141.534L124.578 137.06L126.009 135.857L127.593 136.821ZM130.505 136.233L128.872 137.606L131.748 139.36L130.505 136.233Z" fill="#FFA800"/>
<path d="M122.493 148.753L117.823 141.614L119.298 140.649L123.19 146.596L125.092 145.352L123.561 142.754C123.054 141.872 122.723 141.132 122.569 140.532C122.417 139.936 122.427 139.419 122.597 138.981C122.77 138.545 123.133 138.144 123.687 137.778L124.069 137.527L124.842 138.709L124.613 138.894C124.276 139.185 124.152 139.569 124.241 140.048C124.329 140.532 124.668 141.271 125.259 142.267L127.279 145.622L122.493 148.753Z" fill="#FFA800"/>
<path d="M117.268 148.135L116.043 148.751C115.146 149.202 114.326 149.34 113.583 149.167C112.839 148.999 112.281 148.547 111.911 147.81C111.54 147.07 111.502 146.344 111.8 145.63C112.095 144.922 112.674 144.347 113.536 143.905L116.4 142.467L120.23 150.09L118.649 150.884L117.268 148.135ZM116.632 146.868L115.453 144.523L114.202 145.151C113.8 145.353 113.536 145.623 113.409 145.963C113.279 146.303 113.307 146.659 113.493 147.029C113.666 147.374 113.918 147.589 114.249 147.672C114.577 147.761 114.942 147.708 115.344 147.515L116.632 146.868Z" fill="#FFA800"/>
<path d="M102.793 148.367L104.444 147.763L105.699 151.197L108.918 150.02L107.663 146.586L109.314 145.983L112.243 153.995L110.592 154.599L109.405 151.352L106.186 152.529L107.373 155.776L105.722 156.379L102.793 148.367Z" fill="#FFA800"/>
<path d="M96.982 151.683L99.9822 150.977L100.15 149.132L101.97 148.704L100.831 157.736L99.2453 158.109L94.1841 150.535L96.0036 150.107L96.982 151.683ZM99.8461 152.472L97.7699 152.96L99.5446 155.823L99.8461 152.472Z" fill="#FFA800"/>
<path d="M89.0429 151.227L89.409 154.281L90.8285 154.111L91.9925 150.874L93.8774 150.648L92.5011 154.477C93.4314 154.854 93.9572 155.548 94.0786 156.56C94.178 157.39 93.9835 158.065 93.4949 158.584C93.0063 159.102 92.2757 159.424 91.3031 159.549L88.307 159.908L87.2918 151.437L89.0429 151.227ZM92.3179 156.641C92.2612 156.168 92.1056 155.839 91.8512 155.653C91.593 155.467 91.2331 155.402 90.7715 155.458L89.5672 155.602L89.8887 158.284L91.093 158.14C92.016 158.029 92.4244 157.53 92.3179 156.641Z" fill="#FFA800"/>
<path d="M74.5759 151.441L76.3375 151.526L75.9948 158.626L79.4068 158.79L79.7496 151.691L81.5053 151.776L81.0939 160.297L74.1645 159.963L74.5759 151.441Z" fill="#FFA800"/>
<path d="M70.7747 153.987L71.2778 151.024L73.0108 151.318L71.5829 159.729L68.3017 159.172C67.6701 159.064 67.1352 158.855 66.6969 158.543C66.2547 158.23 65.9409 157.838 65.7554 157.367C65.5693 156.899 65.5224 156.394 65.6146 155.851C65.7545 155.027 66.148 154.424 66.7952 154.042C67.4379 153.664 68.258 153.56 69.2554 153.729L70.7747 153.987ZM70.5364 155.391L68.9882 155.128C68.5299 155.05 68.1631 155.099 67.8877 155.274C67.6085 155.448 67.4349 155.736 67.3669 156.136C67.2969 156.549 67.3617 156.902 67.5611 157.198C67.7606 157.493 68.0734 157.681 68.4996 157.761L70.0882 158.031L70.5364 155.391Z" fill="#FFA800"/>
<path d="M56.8857 151.807C57.123 151.002 57.4735 150.337 57.9371 149.814C58.4007 149.291 58.9471 148.943 59.5763 148.77C60.2018 148.596 60.8574 148.61 61.5431 148.812C62.2213 149.012 62.7784 149.353 63.2145 149.836C63.6505 150.319 63.9258 150.905 64.0403 151.594C64.1538 152.287 64.0965 153.028 63.8684 153.816L63.7492 154.22C63.5118 155.026 63.1589 155.692 62.6905 156.217C62.2172 156.746 61.6683 157.095 61.044 157.266C60.4147 157.439 59.7592 157.425 59.0772 157.224C58.3952 157.023 57.8387 156.68 57.4075 156.194C56.9714 155.711 56.6997 155.12 56.5922 154.421C56.4799 153.724 56.5418 152.975 56.778 152.173L56.8857 151.807ZM58.485 152.682C58.2322 153.54 58.1938 154.237 58.3697 154.773C58.5456 155.31 58.9183 155.662 59.4878 155.83C60.0536 155.996 60.5553 155.904 60.9928 155.552C61.4292 155.204 61.7746 154.606 62.0289 153.756L62.1465 153.357C62.3927 152.522 62.43 151.828 62.2585 151.277C62.087 150.725 61.7128 150.365 61.1357 150.195C60.5699 150.028 60.0702 150.121 59.6364 150.474C59.2015 150.83 58.8569 151.433 58.6026 152.283L58.485 152.682Z" fill="#FFA800"/>
<path d="M49.8838 142.233L51.3694 142.887L50.5246 144.807L55.2334 146.879L56.0759 144.964L57.599 145.634L56.2737 148.879L55.6837 148.62C55.2491 148.744 54.8335 149.024 54.4369 149.46C54.0352 149.898 53.6371 150.482 53.2428 151.214L51.5026 154.558L46.3861 152.306L49.2533 145.79L48.3415 145.389L49.8838 142.233ZM53.8388 147.808L50.8622 146.498L48.5685 151.711L50.5475 152.582L51.5854 150.587C52.2983 149.257 53.0495 148.331 53.8388 147.808Z" fill="#FFA800"/>
<path d="M42.8021 145.783L39.4221 148.474L37.7849 147.513L43.9196 142.954L44.3611 142.676C45.1314 142.236 45.909 142.247 46.6939 142.707L47.2125 143.039L46.5128 144.266C46.4399 144.205 46.3124 144.121 46.1305 144.014C45.9183 143.889 45.7264 143.827 45.5549 143.826C45.38 143.823 45.1905 143.895 44.9862 144.042L44.5174 144.412L44.0203 151.173L42.3882 150.215L42.8021 145.783Z" fill="#FFA800"/>
<path d="M36.9182 140.734L37.7291 141.343L39.8212 138.554L41.2273 139.609L36.1078 146.433L34.7016 145.378L36.7516 142.646L36.1095 142.164L32.3909 143.645L30.6754 142.358L35.2026 140.707L35.5747 135.368L37.2527 136.627L36.9182 140.734Z" fill="#FFA800"/>
<path d="M28.6533 140.753L27.3889 139.532L32.3349 134.412L29.8778 132.038L24.9319 137.159L23.6634 135.934L28.6093 130.813L27.7706 130.003L30.2648 127.589L31.4448 128.729L30.016 130.209L34.5802 134.617L28.6533 140.753Z" fill="#FFA800"/>
<path d="M17.9004 129.267L16.7957 127.893L23.4462 122.549L24.5509 123.924L20.134 127.473L26.6905 126.587L27.7915 127.957L21.1411 133.301L20.0401 131.93L24.4661 128.374L17.9004 129.267Z" fill="#FFA800"/>
<path d="M20.1939 117.606L17.5884 119.241L18.3485 120.452L21.7732 120.122L22.7825 121.73L18.7318 122.121C18.7888 123.123 18.3855 123.895 17.522 124.437C16.814 124.881 16.121 124.994 15.4432 124.773C14.7654 124.553 14.1625 124.03 13.6347 123.204L12.0305 120.648L19.2563 116.112L20.1939 117.606ZM16.6967 122.88C17.1003 122.626 17.3319 122.345 17.3913 122.036C17.4487 121.723 17.3538 121.37 17.1067 120.976L16.4619 119.949L14.174 121.385L14.8188 122.412C15.3131 123.199 15.939 123.355 16.6967 122.88Z" fill="#FFA800"/>
<path d="M15.2631 114.183L15.9135 115.43L10.7638 118.341L9.92917 116.741L15.2631 114.183ZM16.4091 114.379C16.2772 114.126 16.246 113.884 16.3154 113.654C16.3831 113.421 16.5329 113.244 16.765 113.123C16.9935 113.003 17.2229 112.983 17.4532 113.061C17.6816 113.136 17.8617 113.299 17.9936 113.552C18.1237 113.802 18.1549 114.043 18.0873 114.277C18.0179 114.507 17.8689 114.681 17.6403 114.801C17.4117 114.92 17.1832 114.942 16.9548 114.867C16.7211 114.791 16.5392 114.628 16.4091 114.379Z" fill="#FFA800"/>
</svg>
