<svg width="1920" height="363" viewBox="0 0 1920 363" fill="none" xmlns="http://www.w3.org/2000/svg">
<path fill-rule="evenodd" clip-rule="evenodd" d="M1428.21 362.431C1428.82 362.275 1430.68 361.11 1432.35 359.842C1435.91 357.145 1439.6 355.747 1443.18 355.747C1445.55 355.747 1446.01 355.457 1449.72 351.705C1454.63 346.74 1456.02 346.293 1467.31 346.066L1475.58 345.899L1480.61 343.309L1485.63 340.72L1493.02 340.871C1498.53 340.984 1503.11 340.629 1511.04 339.476C1516.89 338.625 1524.08 337.879 1527 337.816C1531.66 337.718 1532.87 337.921 1536.75 339.457C1540.92 341.105 1541.68 341.211 1549.46 341.212C1556.26 341.213 1558.56 340.977 1562.35 339.888C1569.04 337.969 1571.83 336.316 1578.12 330.553C1590.22 319.476 1595.88 315.785 1601.84 315.078C1604.99 314.704 1610.29 315.475 1618.02 317.43C1624.19 318.993 1629.76 319.036 1632.5 317.541C1634.1 316.668 1635.83 316.404 1640.18 316.371C1644.82 316.337 1646.29 316.088 1648.65 314.937C1651.5 313.544 1651.5 313.544 1655.74 314.569C1661.69 316.007 1669.88 316.773 1674.76 316.346C1681.33 315.772 1689.52 314.399 1692.57 313.362C1695.33 312.424 1700.71 312.431 1702.91 313.376C1703.63 313.683 1704.34 313.121 1705.61 311.239C1707.28 308.783 1707.45 308.691 1710.06 308.857C1711.56 308.952 1716.86 308.62 1721.84 308.119C1726.83 307.618 1732.13 307.207 1733.64 307.206C1735.28 307.205 1737.65 306.624 1739.55 305.757C1744.75 303.384 1752.24 301.482 1762.85 299.834C1773.92 298.118 1781.41 296.482 1784.82 295.043C1786.72 294.238 1787.55 294.205 1790.45 294.814C1795.8 295.936 1799.84 295.231 1806.21 292.064C1811.5 289.433 1811.95 289.313 1815.66 289.584C1817.98 289.752 1822.67 290.894 1827.24 292.403C1837.22 295.697 1842 296.078 1848.93 294.135C1853.35 292.893 1855.09 292.754 1866.54 292.729C1878.76 292.702 1879.33 292.752 1881.25 294.033C1883.88 295.776 1886.67 295.709 1891.07 293.797C1893.02 292.95 1896.15 291.717 1898.03 291.059L1901.45 289.861L1905.81 292.112L1910.18 294.363L1915.4 293.861C1918.27 293.584 1922.77 293.343 1925.4 293.325C1929.66 293.296 1930.39 293.459 1932.19 294.836C1935.05 297.019 1936.13 297.221 1940.02 296.307C1943.65 295.455 1945.44 295.612 1946.95 296.914C1947.73 297.584 1948.18 297.494 1949.91 296.32C1951.03 295.558 1954.29 293.668 1957.15 292.119L1962.35 289.303L1965.72 290.395C1970.16 291.837 1978.6 291.838 1982.58 290.398L1985.44 289.363L1988.81 292.586C1992.83 296.422 1996.22 298.269 2000.08 298.727C2003.2 299.097 2007.68 297.887 2010.11 296.018C2011.26 295.13 2011.92 295.027 2013.54 295.475C2016.44 296.277 2019.08 295.188 2022.08 291.961C2036.65 276.294 2037.06 276.062 2053.64 274.178C2056.21 273.886 2061.44 273.994 2067.24 274.46C2076.29 275.187 2080.42 275.062 2083.33 273.975C2086.68 272.726 2090.23 276.53 2095.6 287.104C2097.76 291.362 2099.63 294.743 2099.76 294.617C2100.19 294.187 2101.73 278.496 2103.84 253.038C2105.01 239.038 2106.87 218.259 2107.99 206.864C2109.1 195.468 2110.82 177.354 2111.81 166.609C2113.5 148.316 2115.7 127.706 2119.16 97.6433C2121.78 74.9296 2123.29 56.1319 2122.55 55.6707C2122.05 55.3617 2122.05 53.1968 2122.57 47.1835L2123.26 39.1112L2121.66 35.0183C2116.74 22.4707 2111.56 20.6154 2101.61 27.8393C2100.3 28.7888 2098.88 29.5656 2098.45 29.5656C2098.01 29.5656 2097.26 30.3358 2096.78 31.2776C2095.66 33.4543 2091.63 36.6693 2090.03 36.6693C2089.36 36.6693 2087.38 36.1336 2085.63 35.4789L2082.46 34.289L2077.98 36.3633C2072.45 38.9194 2068.22 39.8701 2064.21 39.4557C2060.15 39.0366 2057.08 37.3904 2052.38 33.1234C2047.81 28.9736 2045.7 28.3301 2041.71 29.8586C2040.23 30.4227 2037.04 32.5196 2034.62 34.5169C2032.19 36.5148 2028.99 39.0645 2027.5 40.1827C2024.93 42.1102 2024.74 42.1599 2023.99 41.1311C2023.25 40.1099 2023.16 40.1401 2022.59 41.652C2022.26 42.5353 2021.98 43.4587 2021.98 43.7044C2021.98 43.9495 2021.57 45.526 2021.07 47.2072C2019.73 51.7358 2018.64 52.0667 2013.66 49.4531C2008.89 46.952 2007.56 46.8236 2006.3 48.7451C2004.98 50.7662 2002.75 51.4991 1998.31 51.373C1994.69 51.2705 1994.22 51.4144 1990.92 53.6461C1978.84 61.8344 1966.1 66.5631 1953.81 67.4215C1947.93 67.8323 1946.64 68.1378 1941.9 70.2535C1933.41 74.0357 1929.56 74.8396 1920.03 74.8153C1909.98 74.7899 1906.22 73.8948 1901.79 70.4791C1896.96 66.7407 1893.63 65.4994 1887.62 65.1974C1882.43 64.9364 1873.88 65.9801 1873.29 66.9474C1872.47 68.2639 1868.98 67.3428 1865.1 64.7884C1859.73 61.2572 1858.08 61.2679 1855.87 64.847C1854.91 66.3992 1854.23 66.8603 1852.89 66.8603C1850.13 66.8603 1845.14 64.8488 1840.59 61.9048C1834.02 57.645 1832 56.8073 1826.79 56.1739C1809.91 54.1221 1810.19 54.2624 1799.25 42.6963C1794.83 38.0167 1790.11 33.5443 1788.77 32.7569C1786.52 31.4356 1785.81 31.338 1779.51 31.4818C1773.23 31.6251 1772.55 31.5315 1770.88 30.3055C1769.75 29.4697 1768.23 28.9736 1766.8 28.9736C1763.73 28.9736 1760.38 26.7069 1754.61 20.732C1752.04 18.0764 1748.78 15.2189 1747.36 14.3824C1744.84 12.906 1744.45 12.8599 1733.66 12.7782C1723.65 12.7024 1722.33 12.8095 1720.39 13.8562L1718.23 15.0176L1714.46 13.0013L1710.69 10.9845L1707.84 12.8753C1706.27 13.9154 1704.51 14.7661 1703.91 14.7661C1702.51 14.7661 1700.82 13.044 1699.31 10.0835C1698.38 8.25723 1697.6 7.5788 1695.89 7.10226C1692.81 6.24509 1685.53 6.34509 1676.96 7.36212C1671.6 7.9985 1668.54 8.07367 1665.22 7.65219C1656.47 6.54047 1646.19 6.34869 1630.62 7.00519C1617.42 7.56165 1614.34 7.535 1611.67 6.83884C1606.47 5.48203 1603.91 6.30487 1587.87 14.4789C1579.95 18.5157 1572.24 22.7596 1570.74 23.9104C1564.3 28.8315 1554.96 29.3205 1534.46 25.81C1527.52 24.6196 1520.84 23.6458 1519.62 23.6458C1518.29 23.6458 1516.8 23.1657 1515.89 22.4458C1512 19.3877 1506.45 18.7216 1498.63 20.3798C1492.03 21.7804 1487.52 21.5703 1484.36 19.7144C1481.82 18.2268 1481.45 18.1723 1476.57 18.5961C1468.92 19.2615 1468.77 19.2284 1466.13 16.2211C1464.25 14.0853 1463.1 13.3583 1460.55 12.6941C1457.76 11.9666 1456.8 11.2763 1453.17 7.41248C1444.75 -1.53473 1436.86 -2.27295 1423.15 4.60587L1417.41 7.48645L1416.15 6.14209C1415.45 5.40271 1413.52 4.20984 1411.85 3.49118C1407.61 1.66257 1402.62 2.14325 1393.43 5.26831C1389.16 6.72281 1386.26 7.43198 1386.14 7.05667C1386.02 6.71451 1385.27 5.64542 1384.46 4.68048C1382.29 2.10358 1380.52 2.38004 1374.81 6.18231C1372.13 7.97305 1369.47 9.43823 1368.92 9.43823C1368.36 9.43823 1367.42 8.90546 1366.83 8.25427C1366.25 7.60309 1365.56 7.07028 1365.31 7.07028C1365.06 7.07028 1363.88 8.66867 1362.7 10.6222C1361.51 12.5757 1360.29 14.1741 1359.97 14.1741C1359.66 14.1741 1358.63 13.6069 1357.7 12.9137C1355.68 11.4231 1353.66 11.718 1350.77 13.9243C1348.44 15.696 1348.13 15.6984 1346.05 13.9663C1342.98 11.4107 1341.8 11.0211 1340.24 12.0441C1339.48 12.5473 1338.68 13.4844 1338.48 14.1267C1338.25 14.8572 1336.89 15.7511 1334.87 16.5106C1329.6 18.4849 1324.67 18.1676 1312.44 15.0644C1302.11 12.4449 1301.8 12.404 1293.02 12.5047C1286.76 12.5757 1282.06 12.2803 1277.3 11.5167C1263.88 9.366 1253.37 10.2149 1247.97 13.8852C1245.62 15.4877 1242.43 16.5337 1239.89 16.5385C1237.96 16.5426 1234.34 15.1194 1232.85 13.7739C1232.02 13.0173 1231.63 12.9724 1230.94 13.5495C1230.46 13.9467 1229.56 14.109 1228.93 13.9101C1227.76 13.5389 1226.81 15.0644 1224.32 21.3033C1223.8 22.5915 1223.16 23.6458 1222.89 23.6458C1222.62 23.6458 1221.41 23.0609 1220.2 22.3458L1218 21.0464L1217.14 22.3458C1215.98 24.0891 1214.4 23.985 1213.01 22.074C1211.15 19.5197 1207.22 19.5463 1197.21 22.18C1191.13 23.7813 1187.08 24.4692 1181.95 24.7758L1174.96 25.1926L1165.22 30.1913C1156.45 34.6951 1155.43 35.087 1154.89 34.1534C1153.74 32.1259 1152.25 32.9783 1150.25 36.8173C1148.29 40.5699 1146.02 43.0154 1142.88 44.7404C1140.5 46.0433 1134.25 45.5769 1130.86 43.8436C1128.39 42.5826 1128.22 42.5737 1123.17 43.457C1117.07 44.5267 1109.59 44.6327 1106.46 43.6938C1104.34 43.0574 1104.09 43.1296 1101.66 45.0956C1094.59 50.8253 1090.41 50.836 1084.73 45.1394C1082.93 43.3368 1080.64 41.5887 1079.64 41.2548C1078.64 40.9215 1074.64 39.1852 1070.74 37.3957C1061.09 32.9594 1058.04 32.6859 1051.87 35.7009C1049.44 36.8848 1047.04 37.8533 1046.51 37.8533C1045.99 37.8533 1042.96 39.0521 1039.77 40.5172C1033.21 43.5286 1030.55 43.8323 1027.47 41.9243C1024.56 40.1218 1021.23 40.6492 1015.91 43.7571C1011.48 46.3435 1004.34 49.0897 1002.03 49.0968C1001.3 49.0992 997.847 48.0093 994.349 46.6756C986.714 43.7631 984.199 43.7672 980.561 46.6957C976.449 50.0049 969.805 52.7801 965.201 53.1098C959.957 53.4857 956.911 52.3728 953.413 48.802C951.882 47.2403 950.266 46.141 949.5 46.141C948.764 46.141 947.69 45.446 947.036 44.5474L945.877 42.9538L943.95 44.5782C941.519 46.6264 939.945 46.408 938.18 43.7778C937.04 42.08 936.202 41.5763 933.49 40.9594C929.917 40.1466 927.561 38.875 923.802 35.7287C922.474 34.6181 920.948 33.7076 920.41 33.7053C918.667 33.6988 916.182 31.5984 913.159 27.5759C909.771 23.0692 907.874 21.8698 904.134 21.8698C901.901 21.8698 901.422 21.6608 901.08 20.5378C900.385 18.254 899.018 17.1174 897.443 17.5134C896.396 17.7763 895.582 17.469 894.423 16.3727C890.15 12.3318 884.241 10.8885 880.273 12.9167C878.937 13.5987 877.697 14.3966 877.516 14.6897C877.335 14.9833 875.505 15.0875 873.448 14.9223C871.079 14.7317 868.164 14.9732 865.494 15.5818C859.782 16.883 857.777 16.7942 854.422 15.0934C852.346 14.0403 851.28 13.7975 850.519 14.2054C848.143 15.4794 843.873 14.7814 837.28 12.0406C828.813 8.52124 824.879 8.09738 820.853 10.2705C816.795 12.4615 814.473 12.6621 802.784 11.8292C793.906 11.1964 791.826 11.213 788.744 11.9417L785.124 12.7971L782.864 11.1088C778.229 7.64749 773.61 7.50659 764.159 10.5393C761.085 11.525 757.265 12.4988 755.668 12.703L752.764 13.0742L750.695 10.2374C747.979 6.51263 744.793 4.72488 740.85 4.71185C738.268 4.70416 736.631 5.29022 730.143 8.55026C725.93 10.6666 722.218 12.3981 721.895 12.3981C721.572 12.3981 720.303 13.1973 719.076 14.1741C716.193 16.4686 714.074 16.452 709.044 14.0941C705.716 12.5349 704.235 12.2063 699.761 12.0358C693.576 11.8008 692.356 12.2567 687.786 16.5154C683.682 20.339 682.169 21.2761 680.084 21.2879C678.752 21.295 677.656 21.961 675.788 23.8979C674.019 25.7331 672.058 26.9668 669.124 28.0898C666.838 28.9647 664.607 30.0409 664.168 30.4808C663.729 30.9206 663.033 33.0683 662.621 35.2527C662.064 38.2114 661.429 39.6914 660.133 41.0494C658.449 42.8147 658.366 42.8366 657.558 41.7302C657.098 41.1015 656.723 40.3716 656.723 40.1082C656.723 39.8447 656.341 39.6292 655.873 39.6292C655.308 39.6292 654.89 40.5734 654.627 42.4411C653.01 53.9196 652.935 54.1357 649.043 58.5223C643.802 64.429 640.227 65.7231 637.057 62.8615C636.083 61.9818 635.843 62.0884 633.644 64.3805C630.843 67.3008 629.372 67.7643 624.903 67.138C623.062 66.8799 619.854 66.6064 617.773 66.5294C614.779 66.4187 613.869 66.1606 613.415 65.2933C612.716 63.9578 611.226 62.7165 610.321 62.7165C609.955 62.7165 608.229 63.782 606.486 65.0844C604.743 66.3867 602.911 67.4523 602.414 67.4523C601.917 67.4523 600.412 66.2535 599.069 64.7884C597.089 62.6288 596.246 62.1251 594.612 62.1268C591.6 62.1298 589.449 63.7613 583.821 70.308C578.027 77.0495 575.751 78.8971 573.245 78.8971C571.81 78.8971 570.992 79.5311 568.746 82.3827C566.16 85.6676 565.882 85.8505 563.933 85.5586C561.908 85.2549 561.845 85.3076 560.978 88.042C559.778 91.8206 558.465 91.9348 555.148 88.5499L552.575 85.9239L548.669 87.0427C546.521 87.6584 540.366 89.7522 534.992 91.6963C524.066 95.6483 515.755 97.9606 510.419 98.5325L506.847 98.9155L505.837 95.7052C504.603 91.7827 503.071 90.1743 501.415 91.0617C500.782 91.4009 499.191 93.4876 497.88 95.6981C494.943 100.649 493.485 102.05 491.744 101.594C490.916 101.376 490.188 101.596 489.751 102.195C488.657 103.693 485.277 102.71 482.2 99.997C479.435 97.5587 477.446 97.0738 475.186 98.2856C472.209 99.881 470.114 97.6137 467.835 90.3294C467.004 87.672 466.125 86.3057 464.07 84.4724C459.962 80.8068 454.482 77.4443 445.729 73.2182C432.653 66.9047 428.142 62.884 425.018 54.7573C420.072 41.8924 415.933 37.7237 410.334 39.9679C406.984 41.3099 405.123 40.8416 396.232 36.4178C392.087 34.3547 387.905 32.4823 386.94 32.2567C385.975 32.0306 383.714 30.9496 381.917 29.8544C378.099 27.528 374.091 26.3215 367.123 25.4004C364.36 25.0357 358.509 23.7825 354.12 22.6169C346.233 20.5213 345.999 20.4964 333.73 20.4366C321.658 20.378 321.208 20.3318 317.264 18.7572C315.034 17.8662 311.417 15.9447 309.228 14.4866C301.618 9.41928 300.377 9.03687 282.344 6.19476C279.111 5.68506 274.08 4.44781 271.164 3.44501C266.346 1.78806 265.453 1.66019 261.38 2.04141C254.843 2.65353 249.632 4.15479 240.601 8.0293C232.842 11.3574 232.521 11.5664 230.849 14.373C228.103 18.9821 226.5 19.8707 217.85 21.5827C213.646 22.415 202.893 24.9966 193.954 27.3196C185.014 29.6431 177.036 31.515 176.223 31.4794C175.41 31.4445 171.953 31.2343 168.54 31.0123C163.113 30.6601 161.258 30.8182 153.764 32.2751C145.838 33.816 143.798 33.9658 126.577 34.2689C93.1479 34.8585 76.8405 32.9831 64.6938 27.152C60.2991 25.0422 58.991 24.6747 56.2227 24.7735C54.2344 24.8445 50.6357 24.2827 47.0618 23.3433C43.1687 22.3197 40.4182 21.9118 38.9412 22.1385C35.209 22.7116 28.2095 27.1254 21.2153 33.3175C17.5166 36.5918 13.1982 39.8358 11.4607 40.6457C9.7456 41.4448 7.0293 42.9834 5.42456 44.0649C-0.29834 47.9223 -2.10815 48.2337 -17.6318 48.0348C-26.2542 47.9247 -32.8848 48.1111 -35.1189 48.5279C-37.8364 49.0346 -44.343 49.008 -61.7148 48.419C-85.7563 47.6038 -90.2529 47.5766 -117.054 48.088L-133.438 48.4L-137.727 50.3784C-140.085 51.4665 -145.09 54.6211 -148.847 57.3886C-152.604 60.1562 -156.257 62.8201 -156.962 63.3084C-158.2 64.165 -158.222 64.3705 -157.597 69.1199C-157.11 72.8245 -157.123 74.5833 -157.649 76.2237C-158.248 78.0931 -157.969 81.0211 -155.692 96.7553C-152.708 117.372 -152.178 121.404 -144.724 180.225C-141.794 203.341 -137.923 235.442 -136.122 251.558C-134.321 267.675 -132.332 284.324 -131.701 288.557C-131.07 292.79 -130.014 302.247 -129.354 309.572C-127.848 326.292 -126.205 340.38 -125.92 339.023C-125.8 338.454 -125.624 337.987 -125.528 337.987C-125.432 337.987 -123.608 339.161 -121.473 340.595C-113.897 345.683 -105.67 347.613 -96.9351 346.351C-91.0125 345.496 -82.1987 342.719 -78.7891 340.634C-68.9675 334.631 -64.7427 334.165 -53.8809 337.89C-48.0984 339.874 -47.1101 340.059 -45.9021 339.387C-43.2544 337.916 -40.0251 338.426 -34.2998 341.217C-24.5498 345.97 -22.3032 345.973 -17.302 341.241C-12.2883 336.498 -6.47339 335.708 4.23584 338.317C12.0437 340.218 14.2969 340.262 18.7158 338.597C21.8376 337.42 22.969 337.301 28.1724 337.6C31.4231 337.787 36.7141 338.566 39.9312 339.331L45.78 340.721L47.1616 343.589C49.8691 349.208 51.3811 349.81 54.9143 346.676C60.0466 342.123 61.2505 341.845 64.082 344.559C68.3787 348.677 70.9851 349.139 79.0089 347.202C86.6058 345.368 86.7733 345.365 92.6469 346.926C99.2113 348.67 108.943 348.685 120.076 346.968C130.57 345.349 133.637 344.769 137.765 343.625C141.891 342.481 144.935 343.2 146.819 345.764C148.519 348.077 151.07 349.419 152.76 348.887C153.475 348.661 155.539 347.316 157.347 345.896C161.004 343.025 163.035 342.659 164.753 344.56C165.371 345.245 166.676 346.213 167.652 346.713C168.628 347.212 171.377 349.042 173.761 350.778C179.208 354.745 181.267 355.19 185.975 353.416C195.964 349.649 196.286 349.573 199.063 350.317C201.398 350.942 201.937 350.88 204.167 349.721C206.395 348.564 207.606 348.422 215.526 348.386C225.195 348.344 225.108 348.369 231.676 343.613C232.756 342.83 235.082 341.77 236.844 341.257C238.607 340.744 240.972 339.511 242.102 338.518C243.231 337.525 244.424 336.878 244.752 337.081C246.343 338.066 249.399 333.963 250.469 329.404L250.886 327.628L251.462 330.134C251.993 332.446 252.157 332.612 253.581 332.27C256.422 331.588 259.829 329.599 262.512 327.057C264.636 325.046 266.542 324.045 271.968 322.095C283.659 317.894 285.259 317.677 299.078 318.407C317.54 319.383 323.367 319.268 326.933 317.86C330.693 316.375 332.026 316.381 340.998 317.915C344.996 318.599 348.928 318.992 349.738 318.788C350.873 318.503 351.685 317.376 353.281 313.867C355.838 308.248 356.702 307.508 358.548 309.356C359.441 310.25 359.579 310.228 360.396 309.06C361.59 307.352 364.099 307.439 366.592 309.275C367.697 310.088 370.026 311.453 371.769 312.309C374.557 313.677 375.444 313.827 379.157 313.561C385.65 313.096 398.637 308.651 411.383 302.532C426.527 295.262 428.203 294.807 441.591 294.329C453.522 293.903 458.242 293.918 478.235 294.443C485.549 294.636 492.501 295.087 493.684 295.448C495.57 296.023 496.253 295.912 499.222 294.55C502.812 292.904 505.359 292.605 507.234 293.61C507.863 293.947 508.377 293.995 508.377 293.717C508.377 293.44 509.237 292.092 510.287 290.723C513.317 286.775 516.548 286.374 526.891 288.667C530.01 289.357 531.775 290.205 534.673 292.401C540.651 296.934 547.14 298.895 556.25 298.924C563.013 298.945 571.258 299.965 574.831 301.222C576.597 301.843 580.652 302.534 583.842 302.755C587.032 302.977 593.989 303.821 599.301 304.632L608.959 306.106L610.954 303.772C616.218 297.612 622.273 298.189 632.393 305.817L636.728 309.083L639.781 307.75C644.029 305.894 651.079 305.571 658.74 306.883L664.702 307.904L667.24 305.481C668.636 304.148 670.872 302.499 672.208 301.816C676.762 299.489 683.334 300.461 688.644 304.249C690.304 305.433 690.446 305.441 692.311 304.473C695.387 302.878 699.894 303.241 707.116 305.662C710.616 306.836 713.997 307.796 714.631 307.796C715.265 307.796 716.081 308.353 716.444 309.033C717.536 311.075 721.24 314.919 722.991 315.827C725.085 316.911 729.188 316.914 732.243 315.834C734.39 315.075 735.08 315.109 739.218 316.171C743.541 317.28 743.959 317.293 746.32 316.39C747.7 315.862 749.149 315.044 749.539 314.573C749.929 314.102 750.981 313.716 751.875 313.716C752.769 313.716 754.763 313.157 756.305 312.473L759.111 311.231L760.789 312.473C761.713 313.157 763.21 313.717 764.117 313.717C765.024 313.717 769.889 314.25 774.927 314.9C786.313 316.37 785.831 316.383 786.644 314.595C788.124 311.342 791.742 311.244 795.288 314.362C797.227 316.067 797.541 316.15 800.62 315.765C803.588 315.393 804.085 315.503 805.967 316.94C807.108 317.812 809.567 319.236 811.432 320.104C816.151 322.302 823.127 322.303 828.71 320.107C830.823 319.276 835.417 317.489 838.919 316.136L845.286 313.677L849.262 314.919C855.544 316.881 863.816 317.057 875.401 315.473C882.746 314.469 888.581 314.105 899.042 313.994L912.931 313.848L914.999 315.4C916.137 316.253 918.976 318.721 921.307 320.883C926.775 325.953 930.116 327.599 934.798 327.528C947.148 327.343 952.35 327.427 955.46 327.86C957.963 328.209 959.504 328.133 960.784 327.598C963.146 326.609 965.68 327.625 967.802 330.412L969.339 332.431L976.891 331.586C983.203 330.88 985.255 330.867 989.376 331.508C993.683 332.178 994.962 332.15 999.474 331.284C1005.67 330.095 1008.76 330.035 1010.74 331.068C1011.56 331.491 1013.32 331.731 1014.66 331.601C1017.55 331.322 1019.51 332.232 1024.87 336.348C1029.71 340.065 1030.99 340.546 1034.88 340.101C1037.69 339.781 1038.4 339.945 1041.23 341.569C1044.92 343.684 1046.2 343.531 1047.91 340.769C1049.6 338.057 1054.49 333.427 1056.44 332.693C1059.32 331.611 1061.11 331.986 1067.39 334.985C1070.76 336.59 1074.54 338.077 1075.79 338.289C1079.37 338.896 1083.99 337.261 1087.42 334.167C1089.63 332.176 1090.78 331.555 1092.06 331.648C1093.56 331.757 1094.1 331.279 1096.53 327.643C1099.86 322.682 1103.81 319.086 1105.97 319.062C1106.82 319.052 1108.8 319.611 1110.37 320.304C1114.16 321.987 1120.45 321.607 1131.61 319.017C1140.13 317.038 1148.54 316.426 1153.3 317.437C1155.45 317.894 1155.49 317.867 1155.87 315.836C1156.33 313.403 1156.04 313.393 1166.74 316.201C1177.27 318.962 1182.64 318.55 1187.83 314.586C1190.15 312.817 1190.46 312.805 1194.46 314.329C1197.85 315.616 1199.22 315.476 1201.62 313.601C1202.85 312.636 1203.64 312.525 1206.8 312.864L1210.53 313.265L1212.57 310.975C1214.89 308.361 1214.9 308.354 1219.67 304.04C1223.6 300.49 1223.5 300.514 1233.85 300.488C1238.85 300.476 1239.84 300.703 1250.1 304.201C1263.89 308.906 1268.83 309.505 1272.55 306.922C1273.87 306.004 1276.02 305.16 1277.45 304.999C1279.65 304.75 1280.75 305.109 1285.64 307.679C1289.53 309.724 1291.55 310.483 1292.12 310.119C1292.58 309.828 1293.88 309.587 1295.01 309.581C1296.79 309.574 1297.66 310.182 1301.7 314.308L1306.35 319.044H1314.75C1322.16 319.044 1323.42 319.191 1325.49 320.294C1326.77 320.981 1328.49 321.892 1329.3 322.318C1330.12 322.745 1332.98 323.354 1335.67 323.672C1341.68 324.384 1343.45 325.582 1346.69 331.139C1349.71 336.298 1353.07 339.157 1360.36 342.764C1367.09 346.086 1373.28 347.787 1388.11 350.383L1398.16 352.141L1406.79 356.593C1417.59 362.163 1423.26 363.708 1428.21 362.431Z" fill="#212121"/>
</svg>
