<svg width="18" height="18" viewBox="0 0 18 18" fill="none" xmlns="http://www.w3.org/2000/svg">
<path d="M14.2333 11.1504C13.8642 10.7667 13.4191 10.5615 12.9473 10.5615C12.4794 10.5615 12.0304 10.7629 11.6462 11.1466L10.4439 12.3433C10.345 12.2901 10.2461 12.2407 10.151 12.1913C10.014 12.1229 9.88468 12.0583 9.77434 11.9899C8.6482 11.2757 7.62477 10.345 6.64319 9.14067C6.16762 8.54043 5.84804 8.03516 5.61596 7.52229C5.92794 7.23736 6.21708 6.94104 6.49862 6.65611C6.60515 6.54974 6.71168 6.43957 6.8182 6.3332C7.61716 5.5354 7.61716 4.50207 6.8182 3.70427L5.77956 2.66714C5.66162 2.54937 5.53987 2.4278 5.42573 2.30623C5.19746 2.07069 4.95778 1.82755 4.71048 1.59961C4.34144 1.2349 3.90011 1.04115 3.43595 1.04115C2.9718 1.04115 2.52286 1.2349 2.1424 1.59961C2.1386 1.60341 2.1386 1.60341 2.13479 1.60721L0.841244 2.91027C0.354261 3.39655 0.0765281 3.9892 0.0156552 4.67682C-0.0756542 5.78614 0.251538 6.81947 0.502638 7.4957C1.11898 9.15587 2.03968 10.6945 3.41312 12.3433C5.07952 14.3301 7.08452 15.8991 9.37487 17.0047C10.2499 17.4187 11.4179 17.9088 12.7229 17.9924C12.8028 17.9962 12.8865 18 12.9626 18C13.8414 18 14.5795 17.6847 15.1578 17.0578C15.1616 17.0502 15.1692 17.0464 15.173 17.0388C15.3708 16.7995 15.5991 16.583 15.8388 16.3512C16.0024 16.1955 16.1698 16.0321 16.3334 15.8611C16.7101 15.4699 16.9079 15.014 16.9079 14.5467C16.9079 14.0756 16.7062 13.6235 16.322 13.2436L14.2333 11.1504ZM15.5953 15.1507C15.5915 15.1545 15.5915 15.1507 15.5953 15.1507C15.4469 15.3103 15.2948 15.4547 15.1312 15.6142C14.8839 15.8498 14.6328 16.0967 14.3969 16.374C14.0126 16.7843 13.5599 16.9781 12.9664 16.9781C12.9093 16.9781 12.8484 16.9781 12.7914 16.9743C11.6614 16.9021 10.6113 16.4614 9.8238 16.0853C7.67042 15.0444 5.77956 13.5665 4.20828 11.6936C2.91092 10.1322 2.04348 8.68859 1.469 7.13859C1.11517 6.19263 0.985817 5.45562 1.04289 4.7604C1.08093 4.31591 1.25214 3.94741 1.56791 3.63209L2.86527 2.33662C3.05169 2.16187 3.24953 2.06689 3.44356 2.06689C3.68325 2.06689 3.87728 2.21125 3.99903 2.33282C4.00283 2.33662 4.00664 2.34042 4.01044 2.34422C4.24252 2.56076 4.46318 2.78491 4.69526 3.02425C4.8132 3.14581 4.93495 3.26738 5.05669 3.39275L6.09534 4.42988C6.49862 4.83258 6.49862 5.20489 6.09534 5.60758C5.98501 5.71775 5.87848 5.82792 5.76815 5.9343C5.44856 6.26101 5.1442 6.56494 4.8132 6.86126C4.80559 6.86886 4.79798 6.87266 4.79418 6.88026C4.46699 7.20697 4.52786 7.52609 4.59634 7.74263C4.60015 7.75403 4.60395 7.76543 4.60776 7.77682C4.87788 8.43026 5.25833 9.0457 5.83663 9.77891L5.84043 9.78271C6.89049 11.0744 7.99762 12.0811 9.21888 12.8523C9.37487 12.9511 9.53466 13.0309 9.68684 13.1069C9.8238 13.1752 9.95316 13.2398 10.0635 13.3082C10.0787 13.3158 10.0939 13.3272 10.1091 13.3348C10.2385 13.3994 10.3602 13.4298 10.4858 13.4298C10.8016 13.4298 10.9994 13.2322 11.0641 13.1676L12.3652 11.8684C12.4946 11.7392 12.7 11.5834 12.9397 11.5834C13.1756 11.5834 13.3697 11.7316 13.4876 11.8608C13.4914 11.8646 13.4914 11.8646 13.4952 11.8684L15.5915 13.9616C15.9834 14.3491 15.9834 14.748 15.5953 15.1507Z" fill="#FFB300"/>
<path d="M9.72869 4.28172C10.7255 4.44888 11.631 4.91996 12.3538 5.64177C13.0767 6.36359 13.5447 7.26776 13.7159 8.2631C13.7577 8.51384 13.9746 8.68859 14.2219 8.68859C14.2523 8.68859 14.2789 8.68479 14.3094 8.68099C14.5909 8.6354 14.7773 8.36947 14.7317 8.08835C14.5262 6.88405 13.9556 5.78614 13.0843 4.91616C12.2131 4.04618 11.1136 3.47633 9.90751 3.27118C9.62597 3.22559 9.36346 3.41175 9.314 3.68907C9.26454 3.9664 9.44716 4.23613 9.72869 4.28172Z" fill="#FFB300"/>
<path d="M17.9922 7.94018C17.6536 5.95709 16.7176 4.15256 15.2795 2.71652C13.8414 1.28049 12.0342 0.345932 10.0483 0.00781896C9.77052 -0.0415684 9.50801 0.148383 9.45855 0.425712C9.41289 0.70684 9.59932 0.968972 9.88085 1.01836C11.6538 1.31848 13.2707 2.15807 14.5567 3.43834C15.8426 4.72241 16.6796 6.337 16.9802 8.10734C17.022 8.35808 17.2389 8.53283 17.4862 8.53283C17.5166 8.53283 17.5432 8.52903 17.5737 8.52523C17.8514 8.48344 18.0416 8.21751 17.9922 7.94018Z" fill="#FFB300"/>
</svg>
